<svg width="39" height="37" viewBox="0 0 39 37" fill="none" xmlns="http://www.w3.org/2000/svg">
<path d="M17.7391 11.6522L18.7169 11.4426L18.2304 9.17239L16.9151 11.0856L17.7391 11.6522ZM20.0217 22.3043L19.0439 22.5139L19.5041 24.6612L20.8217 22.9043L20.0217 22.3043ZM36.9899 0.858579C36.9118 0.311845 36.4053 -0.0680543 35.8586 0.0100505L26.949 1.28284C26.4023 1.36095 26.0224 1.86748 26.1005 2.41421C26.1786 2.96095 26.6851 3.34085 27.2319 3.26274L35.1515 2.13137L36.2828 10.051C36.3609 10.5977 36.8675 10.9776 37.4142 10.8995C37.9609 10.8214 38.3408 10.3149 38.2627 9.76812L36.9899 0.858579ZM1.82404 36.5665L18.5632 12.2187L16.9151 11.0856L0.175958 35.4335L1.82404 36.5665ZM16.7613 11.8617L19.0439 22.5139L20.9995 22.0948L18.7169 11.4426L16.7613 11.8617ZM20.8217 22.9043L36.8 1.6L35.2 0.4L19.2217 21.7043L20.8217 22.9043Z" fill="white"/>
</svg>
