<svg width="1204" height="885" viewBox="0 0 1204 885" fill="none" xmlns="http://www.w3.org/2000/svg">
<g filter="url(#filter0_f_76_395)">
<path d="M494.947 139.858C632.54 90.5261 768.797 80.7754 877.533 104.094C986.55 127.473 1065.3 183.28 1093.85 262.914C1122.4 342.547 1097.05 435.677 1027.72 522.999C958.576 610.095 847.164 689.142 709.571 738.473C571.979 787.805 435.721 797.556 326.986 774.237C217.969 750.858 139.22 695.051 110.668 615.417C82.1171 535.784 107.467 442.654 176.794 355.332C245.942 268.236 357.355 189.189 494.947 139.858Z" stroke="url(#paint0_linear_76_395)" stroke-opacity="0.85" stroke-width="32.6492"/>
</g>
<defs>
<filter id="filter0_f_76_395" x="0.879333" y="-6.20074" width="1202.76" height="890.733" filterUnits="userSpaceOnUse" color-interpolation-filters="sRGB">
<feFlood flood-opacity="0" result="BackgroundImageFix"/>
<feBlend mode="normal" in="SourceGraphic" in2="BackgroundImageFix" result="shape"/>
<feGaussianBlur stdDeviation="40.9544" result="effect1_foregroundBlur_76_395"/>
</filter>
<linearGradient id="paint0_linear_76_395" x1="95.3016" y1="620.927" x2="1010.17" y2="545.203" gradientUnits="userSpaceOnUse">
<stop stop-color="white"/>
<stop offset="0.102738" stop-color="#13140E"/>
<stop offset="0.759002" stop-color="#13140E"/>
<stop offset="1" stop-color="white"/>
</linearGradient>
</defs>
</svg>
