<svg width="125" height="46" viewBox="0 0 125 46" fill="none" xmlns="http://www.w3.org/2000/svg">
<path d="M83 23.85C83.4694 23.85 83.85 23.4694 83.85 23C83.85 22.5306 83.4694 22.15 83 22.15L83 23.85ZM41.399 22.3989C41.067 22.7309 41.067 23.2691 41.399 23.601L46.8083 29.0104C47.1403 29.3423 47.6785 29.3423 48.0104 29.0104C48.3424 28.6785 48.3424 28.1403 48.0104 27.8083L43.2021 23L48.0104 18.1917C48.3424 17.8597 48.3424 17.3215 48.0104 16.9896C47.6785 16.6576 47.1403 16.6576 46.8083 16.9896L41.399 22.3989ZM83 22.15L42 22.15L42 23.85L83 23.85L83 22.15Z" fill="white"/>
<rect x="0.85" y="0.85" width="123.3" height="44.3" rx="22.15" stroke="white" stroke-width="1.7"/>
</svg>
