<svg width="209" height="27" viewBox="0 0 209 27" fill="none" xmlns="http://www.w3.org/2000/svg">
<path d="M23.4679 13.1877L0.456763 0.0405512C0.367572 -0.0100343 0.25676 -0.0125636 0.164867 0.0354926C0.0729739 0.0835488 0.0162164 0.172073 0.0162164 0.270715V5.80224C0.0162164 5.89835 0.0702712 5.98687 0.159462 6.03493L13.5921 13.4482L0.140542 20.9678C0.0540548 21.0158 0 21.1043 0 21.1979V26.7294C0 26.8281 0.0567575 26.9166 0.148651 26.9647C0.191894 26.9874 0.240544 27.0001 0.289193 27.0001C0.340545 27.0001 0.3946 26.9874 0.440546 26.9596L23.4625 13.7214C23.5408 13.6759 23.5922 13.6 23.6003 13.514L23.6057 13.4406C23.6138 13.3395 23.5598 13.2408 23.4679 13.1877Z" fill="#02C6C6"/>
<path d="M37.9574 5.42592C40.9737 5.42592 43.7115 6.8676 45.2818 9.28053C45.3656 9.407 45.5413 9.44746 45.6791 9.37159L50.1305 6.83978C50.1954 6.80184 50.2441 6.74114 50.2603 6.67285C50.2792 6.60203 50.2657 6.52868 50.2251 6.46798C47.5954 2.42367 43.0088 0.0107422 37.9547 0.0107422C30.0411 0.0107422 23.6005 6.03547 23.6005 13.4437C23.6005 20.852 30.0384 26.8767 37.9547 26.8767C42.9926 26.8767 47.5737 24.4739 50.2062 20.4473C50.29 20.3208 50.2468 20.1539 50.1116 20.0755L45.6764 17.5209C45.6116 17.483 45.5332 17.4703 45.4575 17.488C45.3818 17.5057 45.3197 17.5487 45.2791 17.6094C43.7088 20.0198 40.971 21.459 37.9601 21.459C33.2357 21.459 29.3924 17.8624 29.3924 13.4412C29.3924 9.02002 33.233 5.42592 37.9574 5.42592Z" fill="#02C6C6"/>
<path d="M63.3278 6.63965H65.0494L70.29 19.5111L75.5306 6.63965H77.209L71.0603 21.484H69.4738L63.3278 6.63965Z" fill="#0F141E"/>
<path d="M87.4607 16.2254C87.4607 16.4378 87.4391 16.6705 87.4148 16.883H77.466C77.7822 19.0455 79.5741 20.381 81.9741 20.381C83.7634 20.381 85.0093 19.5969 85.6228 18.5776L86.9364 19.2985C85.985 20.7401 84.239 21.7367 81.9525 21.7367C78.3714 21.7367 75.9254 19.3819 75.9254 16.1799C75.9254 13.0638 78.3281 10.623 81.839 10.623C85.3093 10.6281 87.4607 13.3193 87.4607 16.2254ZM77.4687 15.5248H85.9201C85.6039 13.1928 83.7904 11.9838 81.8417 11.9838C79.4633 11.9838 77.7633 13.4482 77.4687 15.5248Z" fill="#0F141E"/>
<path d="M101.62 8.47813L103.115 7.77246V10.8835H106.528V12.2417H103.115V18.666C103.115 20.4897 104.331 20.3404 106.528 20.257V21.4862C103.469 21.9111 101.618 21.2105 101.618 18.666V8.47813H101.62Z" fill="#0F141E"/>
<path d="M139.859 16.2254C139.859 16.4378 139.837 16.6705 139.813 16.883H129.867C130.183 19.0455 131.975 20.381 134.378 20.381C136.167 20.381 137.413 19.5969 138.026 18.5776L139.34 19.2985C138.388 20.7401 136.642 21.7367 134.353 21.7367C130.772 21.7367 128.326 19.3819 128.326 16.1799C128.326 13.0638 130.729 10.623 134.24 10.623C137.707 10.6281 139.859 13.3193 139.859 16.2254ZM129.867 15.5248H138.318C138.002 13.1928 136.188 11.9838 134.24 11.9838C131.861 11.9838 130.161 13.4482 129.867 15.5248Z" fill="#0F141E"/>
<path d="M141.702 14.0631C141.702 9.71527 145.145 6.34375 149.95 6.34375C152.85 6.34375 155.413 7.7222 156.772 9.84174L154.075 11.3062C153.305 9.99096 151.764 9.18665 149.95 9.18665C146.845 9.18665 144.807 11.2025 144.807 14.0631C144.807 16.9035 146.848 18.9193 149.95 18.9193C151.764 18.9193 153.326 18.1125 154.075 16.82L156.772 18.2845C155.434 20.404 152.875 21.7824 149.95 21.7824C145.145 21.7824 141.702 18.3882 141.702 14.0631Z" fill="#0F141E"/>
<path d="M166.9 16.1822C166.9 13.0232 169.551 10.585 172.881 10.585C176.21 10.585 178.886 13.0232 178.886 16.1822C178.886 19.3413 176.213 21.7795 172.881 21.7795C169.548 21.7821 166.9 19.3413 166.9 16.1822ZM175.962 16.1822C175.962 14.4649 174.624 13.2559 172.881 13.2559C171.159 13.2559 169.821 14.4649 169.821 16.1822C169.821 17.8996 171.159 19.1086 172.881 19.1086C174.627 19.1086 175.962 17.8996 175.962 16.1822Z" fill="#0F141E"/>
<path d="M196.356 10.8809L192.754 21.4836H189.967L187.883 15.0592L185.8 21.4836H183.013L179.41 10.8809H182.516L184.443 17.3912L186.505 10.8809H189.27L191.332 17.4114L193.259 10.8809H196.356Z" fill="#0F141E"/>
<path d="M209 6.63965V21.484H206.075V20.2345C205.259 21.2108 204.059 21.7824 202.405 21.7824C199.367 21.7824 196.875 19.3442 196.875 16.1851C196.875 13.0261 199.367 10.5878 202.405 10.5878C204.059 10.5878 205.259 11.1595 206.075 12.1358V6.63965H209ZM206.075 16.1826C206.075 14.402 204.738 13.193 202.948 13.193C201.135 13.193 199.8 14.402 199.8 16.1826C199.8 17.9632 201.138 19.1722 202.948 19.1722C204.74 19.1722 206.075 17.9657 206.075 16.1826Z" fill="#0F141E"/>
<path d="M90.6577 15.6589C90.6577 13.6406 92.2847 11.9991 94.2848 11.9991H94.3415C96.3416 11.9991 97.9686 13.6406 97.9686 15.6589V21.4611H99.3092V15.6589C99.3092 12.897 97.0794 10.6484 94.3415 10.6484H94.2848C91.5442 10.6484 89.3171 12.897 89.3171 15.6589V21.4611H90.6577V15.6589Z" fill="#0F141E"/>
<path d="M110.128 16.8734C110.128 18.8918 111.755 20.5333 113.755 20.5333H113.812C115.812 20.5333 117.439 18.8918 117.439 16.8734V11.0713H118.78V16.8734C118.78 19.6354 116.55 21.8839 113.812 21.8839H113.755C111.015 21.8839 108.788 19.6354 108.788 16.8734V11.0713H110.128V16.8734Z" fill="#0F141E"/>
<path d="M163.837 10.5449H163.78C160.653 10.5449 158.107 13.0894 158.107 16.2156V21.4082H160.856V16.213C160.856 14.5589 162.167 13.2133 163.78 13.2133H163.837C164.405 13.2133 164.951 13.3853 165.429 13.7065L166.81 11.3948C165.918 10.8459 164.888 10.5449 163.837 10.5449Z" fill="#0F141E"/>
<path d="M125.748 10.6484H125.691C122.95 10.6484 120.723 12.897 120.723 15.6589V21.4611H122.064V15.6589C122.064 13.6406 123.691 11.9991 125.691 11.9991H125.748C126.429 11.9991 127.067 12.1913 127.61 12.5226L128.299 11.3668C127.553 10.914 126.68 10.6484 125.748 10.6484Z" fill="#0F141E"/>
</svg>
